HIERARCHY
ROOT root
{
	OFFSET	0	13.1	24.9
	CHANNELS 6  Xposition Yposition Zposition Xrotation Yrotation Zrotation
	JOINT spine_1
	{
		OFFSET	0	9.99999	0
		CHANNELS 3  Xrotation Yrotation Zrotation
		JOINT spine_2
		{
			OFFSET	0	112	-10
			CHANNELS 3  Xrotation Yrotation Zrotation
			JOINT spine_3
			{
				OFFSET	0	206.5	19.3
				CHANNELS 3  Xrotation Yrotation Zrotation
				JOINT spine_4
				{
					OFFSET	0	110.4	14.6
					CHANNELS 3  Xrotation Yrotation Zrotation
					JOINT neck_1
					{
						OFFSET	0	71.8	-50.3
						CHANNELS 3  Xrotation Yrotation Zrotation
						JOINT neck_2
						{
							OFFSET	0	86.2	-25.8
							CHANNELS 3  Xrotation Yrotation Zrotation
							JOINT head_ee
							{
								OFFSET	0	179.8	-8.7
								CHANNELS 3  Xrotation Yrotation Zrotation
								End Site
								{
									OFFSET	1	0	0
								}
							}
						}
					}
					JOINT left_clavicle
					{
						OFFSET	-43.2	22.4	-70.8
						CHANNELS 3  Xrotation Yrotation Zrotation
						JOINT left_shoulder
						{
							OFFSET	-93.9	-5.79999	48.7
							CHANNELS 3  Xrotation Yrotation Zrotation
							JOINT left_elbow
							{
								OFFSET	-291.4	-30.8	15.2
								CHANNELS 3  Xrotation Yrotation Zrotation
								JOINT left_lowarm_twist
								{
									OFFSET	-110.7	-3.89999	13.6
									CHANNELS 3  Xrotation Yrotation Zrotation
									JOINT left_hand
									{
										OFFSET	-110.7	-3.89999	13.6
										CHANNELS 3  Xrotation Yrotation Zrotation
										JOINT left_ee
										{
											OFFSET	-80.8	-5.10001	12.1
											CHANNELS 3  Xrotation Yrotation Zrotation
											End Site
											{
												OFFSET	1	0	0
											}
										}
									}
								}
							}
						}
					}
					JOINT right_clavicle
					{
						OFFSET	43.2	22.4	-70.8
						CHANNELS 3  Xrotation Yrotation Zrotation
						JOINT right_shoulder
						{
							OFFSET	93.9	-5.79999	48.7
							CHANNELS 3  Xrotation Yrotation Zrotation
							JOINT right_elbow
							{
								OFFSET	291.4	-30.8	15.2
								CHANNELS 3  Xrotation Yrotation Zrotation
								JOINT right_lowarm_twist
								{
									OFFSET	110.7	-3.89999	13.6
									CHANNELS 3  Xrotation Yrotation Zrotation
									JOINT right_hand
									{
										OFFSET	110.7	-3.89999	13.6
										CHANNELS 3  Xrotation Yrotation Zrotation
										JOINT right_ee
										{
											OFFSET	80.8	-5.10001	12.1
											CHANNELS 3  Xrotation Yrotation Zrotation
											End Site
											{
												OFFSET	1	0	0
											}
										}
									}
								}
							}
						}
					}
				}
			}
		}
	}
	JOINT left_hip
	{
		OFFSET	-82.8	-127.5	0.300001
		CHANNELS 3  Xrotation Yrotation Zrotation
		JOINT left_knee
		{
			OFFSET	-28.2	-396.7	2.2
			CHANNELS 3  Xrotation Yrotation Zrotation
			JOINT left_ankle
			{
				OFFSET	-11.7	-411.3	35.4
				CHANNELS 3  Xrotation Yrotation Zrotation
				JOINT left_toes
				{
					OFFSET	0	-60	-88.6
					CHANNELS 3  Xrotation Yrotation Zrotation
					JOINT left_foot_ee
					{
						OFFSET	-22.5	-16.5	-42.2
						CHANNELS 3  Xrotation Yrotation Zrotation
						End Site
						{
							OFFSET	1	0	0
						}
					}
				}
			}
		}
	}
	JOINT right_hip
	{
		OFFSET	82.8	-127.5	0.300001
		CHANNELS 3  Xrotation Yrotation Zrotation
		JOINT right_knee
		{
			OFFSET	28.2	-396.7	2.2
			CHANNELS 3  Xrotation Yrotation Zrotation
			JOINT right_ankle
			{
				OFFSET	11.7	-411.3	35.4
				CHANNELS 3  Xrotation Yrotation Zrotation
				JOINT right_toes
				{
					OFFSET	0	-60	-88.6
					CHANNELS 3  Xrotation Yrotation Zrotation
					JOINT right_foot_ee
					{
						OFFSET	22.5	-16.5	-42.2
						CHANNELS 3  Xrotation Yrotation Zrotation
						End Site
						{
							OFFSET	1	0	0
						}
					}
				}
			}
		}
	}
}
MOTION
Frames: 5
Frame Time: 0.02
2945.88 617.421 -499.931 -151.677 -55.2556 -158.925 6.51995 0.454738 -0.499248 6.51995 0.485584 -0.469301 6.51601 0.529198 -0.419505 6.51606 0.456305 -0.497816 -12.2666 1.94558 2.78279 -12.247 1.91183 3.22366 -0.0 0.0 -0.0 2.42452 6.7702 5.15715 3.01218 -28.5842 70.9931 2.25896 -48.2082 1.01078 -41.2605 -3.0862 4.14971 -1.3989 5.45877 -6.9023 -0.0 0.0 -0.0 1.62237 6.38403 -2.52845 -20.4624 18.2289 -81.5293 0.187128 5.29618 -0.00865477 -80.8582 7.93061 -5.26736 -8.59767 -23.9949 44.956 0.0 0.0 0.0 12.2734 -3.62874 12.071 -17.593 0.316524 2.67067 37.6013 19.3262 -4.7864 -3.66252 0.0 0.0 -0.0 0.0 -0.0 53.9174 3.33885 -2.38391 -14.6594 -0.321015 -2.22064 -18.7756 10.3731 -2.9855 8.35848 -0.0 -0.0 0.0 0.0 0.0 
2969.9 612.998 -489.219 -151.994 -55.5531 -159.349 6.61446 0.180459 -0.346933 6.61451 0.202169 -0.334747 6.61328 0.233432 -0.313747 6.61319 0.180952 -0.346675 -11.7762 0.921558 2.80945 -11.754 -0.0740795 2.95946 -0.0 0.0 -0.0 2.3234 5.01433 4.85216 0.381477 -27.2911 71.0772 2.15287 -46.8364 0.932532 -40.5821 -3.01328 4.10215 -1.872 4.71045 -10.3934 -0.0 0.0 -0.0 2.1978 7.44036 -3.5999 -19.8718 18.6527 -83.102 0.193049 5.46277 -0.00920991 -82.0722 8.08408 -5.24705 -9.06828 -26.8948 45.075 0.0 0.0 0.0 11.7377 -2.62204 12.3288 -21.6718 0.272028 3.29479 37.2349 19.0784 -4.74569 -2.13733 0.0 0.0 -0.0 0.0 -0.0 53.5829 3.89342 -2.70059 -16.569 -0.32071 -2.51361 -20.9304 16.2197 -3.47035 9.00266 -0.0 -0.0 0.0 0.0 0.0 
2989.75 618.276 -475.91 -155.801 -55.5221 -163.463 6.04317 0.224817 -0.0635731 6.04314 0.228407 -0.0491385 6.04298 0.232331 -0.0246303 6.04305 0.225525 -0.0610137 -11.9744 0.466639 2.83831 -11.952 -0.944894 2.85947 -0.0 0.0 -0.0 2.14238 5.1592 4.53106 -2.80956 -26.6762 69.8104 2.18729 -47.2893 0.957729 -40.1077 -2.96263 4.06838 -2.16558 3.60774 -12.8974 -0.0 0.0 -0.0 2.74726 8.79866 -4.60758 -19.5465 18.905 -83.0152 0.194765 5.51103 -0.009374 -82.8905 8.18725 -5.2315 -9.39987 -28.7786 45.1524 0.0 0.0 0.0 11.1917 -1.94386 12.5615 -25.1045 0.200237 3.81659 34.1808 19.8449 -4.45287 -1.40193 0.0 0.0 -0.0 0.0 -0.0 52.8503 4.45134 -2.63698 -21.2349 -0.278918 -3.2281 -21.1451 21.4461 -3.6769 9.45444 -0.0 -0.0 0.0 0.0 0.0 
3008.81 618.323 -460.505 -157.804 -54.6191 -166.035 5.55319 0.327838 0.121918 5.55314 0.319415 0.142532 5.55398 0.300984 0.178186 5.55409 0.325348 0.128414 -12.3197 0.672429 4.73331 -12.2578 -1.74924 4.7335 -0.0 0.0 -0.0 1.69477 5.77593 3.76363 -5.15578 -26.1621 69.3098 2.21087 -47.5952 0.975096 -39.6888 -2.91813 4.03822 -2.44087 2.86214 -15.1394 -0.0 0.0 -0.0 3.74841 9.95462 -6.58482 -16.8087 19.371 -83.0853 0.192883 5.45809 -0.00919414 -83.9536 8.32088 -5.20909 -9.50989 -30.8031 43.0102 0.0 0.0 0.0 11.1126 -1.44301 12.8078 -27.503 0.131579 4.17824 30.8708 20.2466 -4.10518 -1.14244 0.0 0.0 -0.0 0.0 -0.0 51.7609 4.73324 -2.1104 -25.3831 -0.193041 -3.85874 -19.9671 25.1657 -3.61544 11.348 -0.0 -0.0 0.0 0.0 0.0 
3024.89 624.99 -448.572 -159.754 -53.4057 -168.657 5.17628 0.420713 0.40435 5.17628 0.394131 0.430302 5.17922 0.339151 0.474843 5.17914 0.409886 0.415322 -12.3067 0.95424 6.01649 -12.2063 -2.03739 6.04627 -0.0 0.0 -0.0 1.11716 6.43839 2.77766 -8.31931 -25.6612 69.2121 2.0344 -45.2168 0.847261 -39.1402 -2.86019 3.99822 -2.63681 2.46439 -16.6886 -0.0 0.0 -0.0 4.32869 11.2772 -7.69792 -15.4589 19.9132 -82.6854 0.190509 5.39132 -0.0089697 -84.7047 8.41499 -5.19174 -9.3692 -30.9205 41.7289 0.0 0.0 0.0 11.0932 -1.47681 12.9633 -29.854 0.0496314 4.52972 28.5224 20.4565 -3.84423 -0.962231 0.0 0.0 -0.0 0.0 -0.0 50.9739 4.80949 -1.61354 -28.2791 -0.106125 -4.29463 -19.289 27.7693 -3.60588 12.7763 -0.0 -0.0 0.0 0.0 0.0 
